<svg width="12" height="19" viewBox="0 0 12 19" fill="none" xmlns="http://www.w3.org/2000/svg">
<path opacity="0.2" fill-rule="evenodd" clip-rule="evenodd" d="M3.71861 17.9268C2.28465 17.2034 -0.453747 14.9407 0.0643278 11.6769C0.354331 9.84991 0.857688 9.09348 1.25038 8.50336C1.7346 7.7757 2.05056 7.30089 1.5908 5.38362C3.29305 5.07112 3.90363 6.55547 3.99615 7.33671C4.82877 6.56993 6.24422 4.22911 5.24508 1C8.29802 2.86628 8.80684 7.33669 8.71433 9.15957C9.50069 7.55369 10.102 7.42349 10.7496 7.33671C10.5492 7.78519 10.3703 8.94256 11.2584 9.9842C12.3494 11.2637 12.8149 15.938 8.44147 17.8293C9.94556 15.5165 8.80284 13.7725 8.01663 13.1759C7.97739 13.4959 7.63207 14.3869 6.56471 15.3912C5.43456 14.4755 5.38747 12.4744 5.50519 11.5882C4.64204 12.179 2.93621 13.582 3.73935 16.7943C3.83297 17.1687 4.08374 17.7009 4.44685 18.183L3.71861 17.9268Z" fill="#BFC5CF"/>
<mask id="mask0" mask-type="alpha" maskUnits="userSpaceOnUse" x="0" y="0" width="7" height="19">
<rect width="7" height="19" fill="url(#paint0_linear)"/>
</mask>
<g mask="url(#mask0)">
<path fill-rule="evenodd" clip-rule="evenodd" d="M3.71861 17.9268C2.28465 17.2034 -0.453747 14.9407 0.0643278 11.6769C0.354331 9.84991 0.857688 9.09348 1.25038 8.50336C1.7346 7.7757 2.05056 7.30089 1.5908 5.38362C3.29305 5.07112 3.90363 6.55547 3.99615 7.33671C4.82877 6.56993 6.24422 4.22911 5.24508 1C8.29802 2.86628 8.80684 7.33669 8.71433 9.15957C9.50069 7.55369 10.102 7.42349 10.7496 7.33671C10.5492 7.78519 10.3703 8.94256 11.2584 9.9842C12.3494 11.2637 12.8149 15.938 8.44147 17.8293C9.94556 15.5165 8.80284 13.7725 8.01663 13.1759C7.97739 13.4959 7.63207 14.3869 6.56471 15.3912C5.43456 14.4755 5.38747 12.4744 5.50519 11.5882C4.64204 12.179 2.93621 13.582 3.73935 16.7943C3.83297 17.1687 4.08374 17.7009 4.44685 18.183L3.71861 17.9268Z" fill="url(#paint1_linear)"/>
</g>
<defs>
<linearGradient id="paint0_linear" x1="-1.31758e-07" y1="11" x2="6.5" y2="11" gradientUnits="userSpaceOnUse">
<stop stop-color="#C4C4C4"/>
<stop offset="0.997596" stop-color="#C4C4C4"/>
<stop offset="1" stop-color="#C4C4C4" stop-opacity="0"/>
</linearGradient>
<linearGradient id="paint1_linear" x1="6" y1="1" x2="6" y2="18.183" gradientUnits="userSpaceOnUse">
<stop stop-color="#FFCB65"/>
<stop offset="1" stop-color="#FF7B43"/>
</linearGradient>
</defs>
</svg>
