<svg width="24" height="25" viewBox="0 0 24 25" fill="none" xmlns="http://www.w3.org/2000/svg">
<g filter="url(#filter0_d)">
<path d="M11.0586 1.05189C11.4712 0.813715 11.9794 0.813715 12.392 1.05189L21.451 6.28209C21.8635 6.52027 22.1176 6.96044 22.1176 7.43679V16.5639C22.1176 17.0402 21.8635 17.4804 21.451 17.7186L12.392 22.9488C11.9794 23.1869 11.4712 23.1869 11.0586 22.9488L1.99967 17.7186C1.58714 17.4804 1.33301 17.0402 1.33301 16.5639V7.43679C1.33301 6.96044 1.58714 6.52027 1.99967 6.28209L11.0586 1.05189Z" fill="#F7D4A8"/>
</g>
<path d="M11.0591 3.25892C11.4716 3.02075 11.9799 3.02075 12.3924 3.25892L19.5401 7.38567C19.9527 7.62385 20.2068 8.06402 20.2068 8.54038V16.7939C20.2068 17.2702 19.9527 17.7104 19.5401 17.9486L12.3924 22.0753C11.9799 22.3135 11.4716 22.3135 11.0591 22.0753L3.91131 17.9486C3.49878 17.7104 3.24464 17.2702 3.24464 16.7939V8.54038C3.24464 8.06402 3.49878 7.62385 3.91131 7.38567L11.0591 3.25892Z" fill="#F9E2D3"/>
<mask id="mask0" mask-type="alpha" maskUnits="userSpaceOnUse" x="3" y="2" width="20" height="22">
<path d="M12.0683 2.67919C12.4433 2.46271 12.9002 2.44185 13.2934 2.62325L21.2858 6.31036C21.7576 6.52801 22.06 6.99988 22.0606 7.51945L22.0716 16.5005C22.0721 16.9741 21.8214 17.4124 21.4129 17.6521L12.3975 22.9414C11.9837 23.1842 11.4715 23.186 11.0561 22.9461L3.91374 18.8225C3.5012 18.5843 3.24707 18.1441 3.24707 17.6678V8.54079C3.24707 8.06439 3.50125 7.62418 3.91386 7.38602L12.0683 2.67919Z" fill="#FFFCF1"/>
</mask>
<g mask="url(#mask0)">
<path opacity="0.6" d="M22.3462 6.23047L29.5571 10.8908C30.0319 11.1977 30.2616 11.7706 30.1302 12.3205L27.7307 22.3621C27.6456 22.7183 27.4177 23.0239 27.1005 23.207L20.2059 27.1876C19.8232 27.4085 19.356 27.4255 18.9583 27.233L11.5908 23.6667V13.6787L22.3462 6.23047Z" fill="url(#paint0_linear)"/>
<path opacity="0.6" d="M11.5941 13.6787L19.5974 18.8511V27.3227C19.5974 27.7991 19.3432 28.2392 18.9307 28.4774L12.2608 32.3283C11.8482 32.5665 11.34 32.5665 10.9274 32.3283L4.25749 28.4774C3.84495 28.2392 3.59082 27.7991 3.59082 27.3227V19.577C3.59082 19.1244 3.82036 18.7028 4.20043 18.4571L11.5941 13.6787Z" fill="url(#paint1_linear)"/>
<path d="M11.5897 9.81654L5.79664 5.12689L4.2794 4.02344L1.93457 6.0924L11.5897 13.6786V9.81654Z" fill="url(#paint2_linear)"/>
</g>
<g filter="url(#filter1_i)">
<path d="M13.947 14.8027C13.947 15.528 13.7159 16.0862 13.2537 16.4773C12.7985 16.8684 12.2261 17.064 11.5363 17.064C10.8608 17.064 10.2883 16.8791 9.81899 16.5093C9.35677 16.1324 9.1221 15.5707 9.11499 14.824H10.5017C10.5088 15.1511 10.6083 15.4 10.8003 15.5707C10.9994 15.7342 11.2448 15.816 11.5363 15.816C11.8421 15.816 12.0874 15.7236 12.2723 15.5387C12.4643 15.3538 12.5603 15.0942 12.5603 14.76C12.5603 14.44 12.4643 14.1876 12.2723 14.0027C12.0874 13.8107 11.8279 13.7147 11.4937 13.7147H11.291V12.5093H11.4937C11.8137 12.5093 12.0519 12.424 12.2083 12.2533C12.3719 12.0756 12.4537 11.8444 12.4537 11.56C12.4537 11.2542 12.3648 11.016 12.187 10.8453C12.0092 10.6747 11.7888 10.5893 11.5257 10.5893C11.2625 10.5893 11.0421 10.6711 10.8643 10.8347C10.6937 10.9982 10.6012 11.2222 10.587 11.5067H9.20033C9.21455 10.8453 9.4421 10.3191 9.88299 9.928C10.3239 9.53689 10.8714 9.34133 11.5257 9.34133C12.2012 9.34133 12.7559 9.544 13.1897 9.94933C13.6234 10.3547 13.8403 10.8773 13.8403 11.5173C13.8403 12.2427 13.5488 12.7618 12.9657 13.0747C13.6199 13.4231 13.947 13.9991 13.947 14.8027Z" fill="#E4AC66"/>
</g>
<defs>
<filter id="filter0_d" x="1.33301" y="0.873047" width="20.7846" height="23.5875" filterUnits="userSpaceOnUse" color-interpolation-filters="sRGB">
<feFlood flood-opacity="0" result="BackgroundImageFix"/>
<feColorMatrix in="SourceAlpha" type="matrix" values="0 0 0 0 0 0 0 0 0 0 0 0 0 0 0 0 0 0 127 0"/>
<feOffset dy="1.33333"/>
<feColorMatrix type="matrix" values="0 0 0 0 0.833333 0 0 0 0 0.630274 0 0 0 0 0.375 0 0 0 1 0"/>
<feBlend mode="normal" in2="BackgroundImageFix" result="effect1_dropShadow"/>
<feBlend mode="normal" in="SourceGraphic" in2="effect1_dropShadow" result="shape"/>
</filter>
<filter id="filter1_i" x="9.11523" y="9.3418" width="5.49867" height="8.38933" filterUnits="userSpaceOnUse" color-interpolation-filters="sRGB">
<feFlood flood-opacity="0" result="BackgroundImageFix"/>
<feBlend mode="normal" in="SourceGraphic" in2="BackgroundImageFix" result="shape"/>
<feColorMatrix in="SourceAlpha" type="matrix" values="0 0 0 0 0 0 0 0 0 0 0 0 0 0 0 0 0 0 127 0" result="hardAlpha"/>
<feOffset dx="0.666667" dy="0.666667"/>
<feGaussianBlur stdDeviation="0.666667"/>
<feComposite in2="hardAlpha" operator="arithmetic" k2="-1" k3="1"/>
<feColorMatrix type="matrix" values="0 0 0 0 0.783333 0 0 0 0 0.489427 0 0 0 0 0.127292 0 0 0 1 0"/>
<feBlend mode="normal" in2="shape" result="effect1_innerShadow"/>
</filter>
<linearGradient id="paint0_linear" x1="15.333" y1="10.3333" x2="26.3246" y2="17.0138" gradientUnits="userSpaceOnUse">
<stop stop-color="#FFD59F"/>
<stop offset="1" stop-color="#F7D4A8" stop-opacity="0"/>
</linearGradient>
<linearGradient id="paint1_linear" x1="11.6663" y1="13.3337" x2="11.7915" y2="24.9954" gradientUnits="userSpaceOnUse">
<stop stop-color="#FFCC8C"/>
<stop offset="1" stop-color="#F7D4A8" stop-opacity="0"/>
</linearGradient>
<linearGradient id="paint2_linear" x1="1.72624" y1="4" x2="9.72624" y2="13.3333" gradientUnits="userSpaceOnUse">
<stop stop-color="white" stop-opacity="0"/>
<stop offset="1" stop-color="white"/>
</linearGradient>
</defs>
</svg>
