<svg width="24" height="25" viewBox="0 0 24 25" fill="none" xmlns="http://www.w3.org/2000/svg">
<g filter="url(#filter0_d)">
<path d="M11.0586 1.05189C11.4712 0.813715 11.9794 0.813715 12.392 1.05189L21.451 6.28209C21.8635 6.52027 22.1176 6.96044 22.1176 7.43679V16.5639C22.1176 17.0402 21.8635 17.4804 21.451 17.7186L12.392 22.9488C11.9794 23.1869 11.4712 23.1869 11.0586 22.9488L1.99967 17.7186C1.58714 17.4804 1.33301 17.0402 1.33301 16.5639V7.43679C1.33301 6.96044 1.58714 6.52027 1.99967 6.28209L11.0586 1.05189Z" fill="#E8F1FC"/>
</g>
<path d="M11.0591 3.25892C11.4716 3.02075 11.9799 3.02075 12.3924 3.25892L19.5401 7.38567C19.9527 7.62385 20.2068 8.06402 20.2068 8.54038V16.7939C20.2068 17.2702 19.9527 17.7104 19.5401 17.9486L12.3924 22.0753C11.9799 22.3135 11.4716 22.3135 11.0591 22.0753L3.91131 17.9486C3.49878 17.7104 3.24464 17.2702 3.24464 16.7939V8.54038C3.24464 8.06402 3.49878 7.62385 3.91131 7.38567L11.0591 3.25892Z" fill="#EDF4FE"/>
<mask id="mask0" mask-type="alpha" maskUnits="userSpaceOnUse" x="3" y="1" width="20" height="23">
<path d="M11.0736 2.02179C11.4756 1.7265 12.0088 1.68028 12.4556 1.90198L21.3199 6.3003C21.7731 6.52516 22.06 6.98714 22.0606 7.49306L22.0716 16.5005C22.0721 16.9741 21.8214 17.4124 21.4129 17.6521L12.3975 22.9414C11.9837 23.1842 11.4715 23.186 11.0561 22.9461L3.91374 18.8225C3.5012 18.5843 3.24707 18.1441 3.24707 17.6678V8.44588C3.24707 8.02153 3.44906 7.62252 3.79106 7.37131L11.0736 2.02179Z" fill="#FFFCF1"/>
</mask>
<g mask="url(#mask0)">
<path opacity="0.53" d="M22.3462 6.23047L29.5571 10.8908C30.0319 11.1977 30.2616 11.7706 30.1302 12.3205L27.7307 22.3621C27.6456 22.7183 27.4177 23.0239 27.1005 23.207L20.2059 27.1876C19.8232 27.4085 19.356 27.4255 18.9583 27.233L11.5908 23.6667V13.6787L22.3462 6.23047Z" fill="url(#paint0_linear)"/>
<path opacity="0.6" d="M11.5941 13.6787L19.5974 18.8511V27.3227C19.5974 27.7991 19.3432 28.2392 18.9307 28.4774L12.2608 32.3283C11.8482 32.5665 11.34 32.5665 10.9274 32.3283L4.25749 28.4774C3.84495 28.2392 3.59082 27.7991 3.59082 27.3227V19.577C3.59082 19.1244 3.82036 18.7028 4.20043 18.4571L11.5941 13.6787Z" fill="url(#paint1_linear)"/>
<path d="M11.5897 9.81654L5.79664 5.12689L4.2794 4.02344L1.93457 6.0924L11.5897 13.6786V9.81654Z" fill="url(#paint2_linear)"/>
</g>
<g filter="url(#filter1_i)">
<path d="M13.915 17H9.29633V15.752L12.1337 12.456C12.3968 12.1431 12.5283 11.8373 12.5283 11.5387C12.5283 11.2542 12.4465 11.0267 12.283 10.856C12.1265 10.6782 11.9025 10.5893 11.611 10.5893C11.3479 10.5893 11.1274 10.6676 10.9497 10.824C10.7719 10.9733 10.683 11.2187 10.683 11.56H9.29633C9.29633 10.8844 9.51321 10.3476 9.94699 9.94933C10.3879 9.544 10.9425 9.34133 11.611 9.34133C12.2937 9.34133 12.8483 9.54044 13.275 9.93867C13.7017 10.3369 13.915 10.8738 13.915 11.5493C13.915 11.8907 13.8545 12.1787 13.7337 12.4133C13.6128 12.648 13.403 12.9396 13.1043 13.288L10.9817 15.752H13.915V17Z" fill="#8C90BC"/>
</g>
<defs>
<filter id="filter0_d" x="1.33301" y="0.873047" width="20.7846" height="23.5875" filterUnits="userSpaceOnUse" color-interpolation-filters="sRGB">
<feFlood flood-opacity="0" result="BackgroundImageFix"/>
<feColorMatrix in="SourceAlpha" type="matrix" values="0 0 0 0 0 0 0 0 0 0 0 0 0 0 0 0 0 0 127 0"/>
<feOffset dy="1.33333"/>
<feColorMatrix type="matrix" values="0 0 0 0 0.603922 0 0 0 0 0.678431 0 0 0 0 0.803922 0 0 0 1 0"/>
<feBlend mode="normal" in2="BackgroundImageFix" result="effect1_dropShadow"/>
<feBlend mode="normal" in="SourceGraphic" in2="effect1_dropShadow" result="shape"/>
</filter>
<filter id="filter1_i" x="9.2959" y="9.3418" width="5.28533" height="8.32533" filterUnits="userSpaceOnUse" color-interpolation-filters="sRGB">
<feFlood flood-opacity="0" result="BackgroundImageFix"/>
<feBlend mode="normal" in="SourceGraphic" in2="BackgroundImageFix" result="shape"/>
<feColorMatrix in="SourceAlpha" type="matrix" values="0 0 0 0 0 0 0 0 0 0 0 0 0 0 0 0 0 0 127 0" result="hardAlpha"/>
<feOffset dx="0.666667" dy="0.666667"/>
<feGaussianBlur stdDeviation="0.666667"/>
<feComposite in2="hardAlpha" operator="arithmetic" k2="-1" k3="1"/>
<feColorMatrix type="matrix" values="0 0 0 0 0.397153 0 0 0 0 0.430799 0 0 0 0 0.554167 0 0 0 1 0"/>
<feBlend mode="normal" in2="shape" result="effect1_innerShadow"/>
</filter>
<linearGradient id="paint0_linear" x1="14.9997" y1="11" x2="23.6563" y2="19.0108" gradientUnits="userSpaceOnUse">
<stop stop-color="#CEDDFF"/>
<stop offset="1" stop-color="#D8E3FC" stop-opacity="0"/>
</linearGradient>
<linearGradient id="paint1_linear" x1="11.5941" y1="13.6787" x2="11.7262" y2="23.3337" gradientUnits="userSpaceOnUse">
<stop stop-color="#AFBAE1"/>
<stop offset="1" stop-color="#D8E3FC" stop-opacity="0"/>
</linearGradient>
<linearGradient id="paint2_linear" x1="1.72624" y1="4" x2="9.72624" y2="13.3333" gradientUnits="userSpaceOnUse">
<stop stop-color="white" stop-opacity="0"/>
<stop offset="1" stop-color="white"/>
</linearGradient>
</defs>
</svg>
